<?xml version="1.0" encoding="UTF-8"?>
<svg xmlns="http://www.w3.org/2000/svg" viewBox="0 0 207.32 48.19">
  <g id="Layer_1" data-name="Layer 1"/>
  <g id="Layer_2" data-name="Layer 2">
    <g id="Layer_1-2" data-name="Layer 1">
      <g>
        <g>
          <path d="M36.59,15.05l-5.28-10.56h0c-1.31-2.66-4.05-4.49-7.21-4.49s-5.9,1.83-7.21,4.49h0l-5.28,10.56c3.25-3.11,7.65-5.01,12.49-5.01s9.25,1.91,12.49,5.01Z" style="fill: #753bbd;"/>
          <path d="M6.02,28.11c0-.73,.04-1.45,.13-2.16L.81,36.64h0c-.52,1.06-.81,2.25-.81,3.51,0,4.44,3.6,8.03,8.03,8.03,3.11,0,5.81-1.77,7.14-4.36-5.46-3.11-9.15-8.98-9.15-15.72Z" style="fill: #753bbd;"/>
          <path d="M47.38,36.64h0l-5.34-10.69c.08,.71,.13,1.43,.13,2.16,0,6.74-3.69,12.61-9.15,15.72,1.33,2.59,4.03,4.36,7.14,4.36,4.44,0,8.03-3.6,8.03-8.03,0-1.26-.29-2.45-.81-3.51Z" style="fill: #753bbd;"/>
          <circle cx="24.09" cy="28.11" r="6.02" style="fill: #753bbd;"/>
        </g>
        <g>
          <path d="M114.12,18.54h0c-2.1,0-3.99,.64-5.51,1.75-.24-.76-.95-1.31-1.79-1.31h-2.55v24.91h3.77v-8.34c1.61,1.4,3.71,2.22,6.09,2.22,5.49,0,9.5-4.13,9.5-9.62s-4.01-9.61-9.5-9.61Zm-.3,15.63c-3.46,0-6.01-2.58-6.01-6.02s2.55-6.02,6.01-6.02,5.98,2.56,5.98,6.02-2.53,6.02-5.98,6.02Z" style="fill: #888b8d;"/>
          <polygon points="141.19 19.56 141.19 18.99 127.19 18.99 127.19 22.44 135.39 22.44 126.5 36.84 126.5 37.32 141.21 37.32 141.21 33.83 132.38 33.83 141.19 19.56" style="fill: #888b8d;"/>
          <path d="M154.06,18.54c-5.61,0-9.8,4.07-9.8,9.61s4.2,9.61,9.8,9.61h0c5.6,0,9.8-4.1,9.8-9.61s-4.21-9.61-9.8-9.61Zm0,15.63c-3.47,0-5.97-2.51-5.97-6.02s2.5-6.02,5.97-6.02,5.97,2.51,5.97,6.02-2.5,6.02-5.97,6.02Z" style="fill: #888b8d;"/>
          <path d="M177.36,18.57h0c-2.11,0-3.95,.69-5.32,1.88-.19-.81-.9-1.42-1.76-1.46h-2.63v18.33h3.77v-9.82c0-3.24,2.05-5.56,4.93-5.56s4.21,1.77,4.21,5.1v10.27h3.77v-11.04c0-4.52-2.68-7.71-6.97-7.71Z" style="fill: #888b8d;"/>
          <path d="M197.97,18.54c-5.37,0-9.42,4.13-9.42,9.61s4.06,9.61,9.42,9.61c4.09,0,7.44-2.35,8.9-6.22h-3.97c-.97,1.67-2.74,2.68-4.93,2.68-3,0-5.14-1.83-5.61-4.8h14.88c.04-.41,.08-.83,.08-1.24h0c0-5.34-3.74-9.66-9.35-9.66Zm-5.52,7.83c.62-2.72,2.68-4.43,5.52-4.43h0c2.79,0,4.89,1.64,5.57,4.43h-11.09Z" style="fill: #888b8d;"/>
          <path d="M91.11,18.54h0c-2.1,0-3.99,.64-5.51,1.75-.24-.76-.95-1.31-1.79-1.31h-2.55v24.91h3.77v-8.34c1.61,1.4,3.71,2.22,6.09,2.22,5.49,0,9.5-4.13,9.5-9.62s-4.01-9.61-9.5-9.61Zm-.3,15.63c-3.46,0-6.01-2.58-6.01-6.02s2.55-6.02,6.01-6.02,5.98,2.56,5.98,6.02-2.53,6.02-5.98,6.02Z" style="fill: #888b8d;"/>
          <path d="M73.92,18.99h-.01c-1.03,0-1.87,.83-1.88,1.86-1.63-1.45-3.79-2.3-6.26-2.3-5.46,0-9.55,4.09-9.55,9.61s4.08,9.62,9.55,9.62c2.47,0,4.63-.86,6.26-2.32,.01,1.03,.85,1.86,1.88,1.86h1.91l-.03-18.33h-1.87Zm-7.86,15.17c-3.46,0-6.01-2.58-6.01-6.02s2.55-6.02,6.01-6.02,5.98,2.56,5.98,6.02-2.53,6.02-5.98,6.02Z" style="fill: #888b8d;"/>
        </g>
      </g>
    </g>
  </g>
</svg>